<?xml version="1.0" encoding="utf-8"?>
<!-- Generator: Adobe Illustrator 22.1.0, SVG Export Plug-In . SVG Version: 6.00 Build 0)  -->
<svg version="1.1" id="Layer_1" xmlns="http://www.w3.org/2000/svg" xmlns:xlink="http://www.w3.org/1999/xlink" x="0px" y="0px"
	 viewBox="0 0 100 125" style="enable-background:new 0 0 100 125;" xml:space="preserve">
<path d="M90.2,38.8c-2.1-1.9-4.6-4.3-5.4-5.2c-1.6-9.4-9.9-16.5-19.5-16.5c-5,0-9.8,1.9-13.5,5.3l0,0l0,0l-0.1,0.1l-0.1,0.1
	l-44,56.9C7,80.4,7.1,81.6,8,82.3c0.4,0.3,0.8,0.4,1.2,0.4c0.6,0,1.2-0.3,1.5-0.8l43.8-56.7c3-2.7,6.8-4.2,10.8-4.2
	c7.9,0,14.6,5.9,15.8,13.6c0.1,0.6,0.1,1,2.9,3.6h-6.6c-1,0-1.8,0.7-1.9,1.6c-0.1,0.4-0.1,0.8,0.1,1.2c1.1,2.9,1.6,6,1.6,9.2
	c0,14.5-11.8,26.3-26.3,26.3c-4,0-7.9-0.9-11.4-2.6l23.1-32.1c0.6-0.9,0.4-2.1-0.4-2.7c-0.9-0.6-2.1-0.4-2.7,0.4L35.1,73.3
	c-0.6,0.9-0.4,2.1,0.4,2.7l0,0c0.1,0.1,0.2,0.2,0.3,0.2c4.6,2.6,9.8,4,15.1,4c16.6,0,30.2-13.5,30.2-30.2c0-2.7-0.4-5.4-1.1-8h8.9
	c0.8,0,1.5-0.5,1.8-1.2S90.8,39.3,90.2,38.8z"/>
</svg>
