<?xml version="1.0" encoding="utf-8"?>
<!-- Generator: Adobe Illustrator 22.1.0, SVG Export Plug-In . SVG Version: 6.00 Build 0)  -->
<svg version="1.1" id="Layer_1" xmlns="http://www.w3.org/2000/svg" xmlns:xlink="http://www.w3.org/1999/xlink" x="0px" y="0px"
	 viewBox="0 0 100 125" style="enable-background:new 0 0 100 125;" xml:space="preserve">
<title>Artboard 16</title>
<path d="M70.9,87.4l-1.6-4.1c0.1-0.3,0.1-0.6,0-0.9l-0.3-0.8c0.4-0.5,0.8-1,1.1-1.6c1-2.1,1.1-4.5,0.4-6.7c-0.6-1.6-1.3-3.2-2.1-4.7
	l0.7,0.5c0.5,0.5,1.3,0.5,1.8,0c0.5-0.5,0.5-1.3,0-1.8c-0.1-0.1-0.2-0.1-0.2-0.2l-5.2-3.9l0,0c-1.2-1.9-2.5-3.8-3.9-5.6l4.9-3.2
	L69.6,44c0.1-0.3,0.1-0.6,0-0.9l1.4-4.2c0.3-0.7-0.1-1.4-0.8-1.7s-1.4,0.1-1.7,0.8l-1.4,4.2c-0.3,0.2-0.5,0.5-0.6,0.8l-3.1,9.3
	l-4.4,2.9l-0.4-0.4c0-0.6,0-1,0-1.3c0-2.6-1.1-5-3.1-6.7c2.6-1.1,3.8-4,2.7-6.6c-0.6-1.4-1.7-2.4-3.1-2.8c0.1-0.7-0.3-1.3-1-1.4
	c-0.4-0.1-0.9,0.1-1.2,0.5l-0.5,0.9c-1,0.2-1.9,0.8-2.6,1.6c-0.5-0.5-1-0.9-1.6-1.2l-0.6-1.3c-0.3-0.6-1-0.9-1.6-0.7
	c-0.6,0.2-0.9,0.9-0.7,1.5c-2.7,0.5-4.6,3-4.1,5.8c0.3,1.7,1.4,3.1,3,3.8c-2,1.7-3.1,4.1-3.1,6.7c0,0.3,0,0.7,0,1.2l0,0v0.2
	l-0.4,0.4l-4.4-2.9l-3.1-9.3c-0.1-0.3-0.3-0.6-0.6-0.8l-1.3-4.2c-0.2-0.7-0.9-1-1.6-0.8s-1,0.9-0.8,1.6l1.4,4.2
	c-0.1,0.3-0.1,0.6,0,0.9l3.4,10.3l4.9,3.2c-1.4,1.8-2.7,3.6-3.9,5.6l0,0l-5.3,4c-0.5,0.5-0.5,1.3,0,1.8c0.4,0.4,1,0.5,1.5,0.2
	l0.7-0.5c-0.8,1.5-1.6,3.1-2.2,4.8c-0.7,2.2-0.6,4.6,0.5,6.7c0.3,0.6,0.6,1.1,1.1,1.6l-0.3,0.8c-0.1,0.3-0.1,0.6,0,0.9l-1.6,4.1
	c-0.2,0.7,0.3,1.4,1,1.5c0.5,0.1,1-0.1,1.3-0.5l1.7-4.1c0.2-0.1,0.4-0.4,0.5-0.6c1.3,0.7,2.8,1.1,4.3,1.2c3.4,0,6.5-2,8-5.1
	c1.2,3.5,2.5,4.9,4.1,4.9c1.6,0,2.9-1.6,4.2-5.1c1.8,4.1,6.4,6.1,10.7,4.7c0.5-0.2,1.1-0.4,1.6-0.7c0.1,0.2,0.3,0.4,0.5,0.6l1.6,4.2
	c0.3,0.6,1.1,0.8,1.7,0.5C70.7,88.6,70.9,88,70.9,87.4L70.9,87.4z M53.6,39.6c1.4,0,2.5,1.1,2.5,2.5s-1.1,2.5-2.5,2.5
	c-1.4,0-2.5-1.1-2.5-2.5v0C51.1,40.7,52.2,39.6,53.6,39.6z M46.2,39.6c1.4,0,2.5,1.1,2.5,2.5s-1.1,2.5-2.5,2.5
	c-1.4,0-2.5-1.1-2.5-2.5v0C43.7,40.7,44.8,39.6,46.2,39.6z M49.9,47.1c3.3,0,6.1,2.6,6.3,5.9L53,59.4c-0.9,1.7-2.9,2.4-4.7,1.6
	c-0.7-0.3-1.2-0.9-1.6-1.6l-3.2-6.3C43.8,49.7,46.6,47.1,49.9,47.1z M43.7,77.9c-1.1,3.3-4.6,5.1-7.9,4c-3.3-1.1-5.1-4.6-4-7.9
	c1-3,6.8-13.7,10.8-17.2l1.9,3.7c0.3,0.6,0.7,1.1,1.2,1.6C45.7,67.4,45,72.8,43.7,77.9z M49.9,82.2c-0.3-0.2-1.4-1.3-2.9-7.1l0,0
	c0.7-3.8,1.1-7.6,1.3-11.5c1.1,0.3,2.3,0.3,3.4,0c0.1,3.8,0.6,7.7,1.2,11.4l0,0C51.3,80.9,50.2,82,49.9,82.2z M64,81.9
	c-3.3,1.1-6.8-0.7-7.9-4c-1.3-5.2-2-10.5-2-15.8c0.5-0.5,0.9-1,1.2-1.6l1.9-3.7C61.2,60.3,67,71,68,74C69.1,77.3,67.3,80.9,64,81.9
	C64,82,64,82,64,81.9L64,81.9z"/>
</svg>
