<?xml version="1.0" encoding="utf-8"?>
<!-- Generator: Adobe Illustrator 22.1.0, SVG Export Plug-In . SVG Version: 6.00 Build 0)  -->
<svg version="1.1" id="Layer_1" xmlns="http://www.w3.org/2000/svg" xmlns:xlink="http://www.w3.org/1999/xlink" x="0px" y="0px"
	 viewBox="0 0 100 125" style="enable-background:new 0 0 100 125;" xml:space="preserve">
<title>Artboard 8</title>
<path d="M84.3,60.1c0.9,0,1.5-0.7,1.5-1.5c0-0.5-0.2-0.9-0.6-1.2l-6.5-4.9C77.6,47,74.9,41.9,71,37.8l6-4l5.8-17.4
	c0.1-0.3,0.1-0.7,0-1l2.6-7.8c0.2-0.6-0.1-1.3-0.7-1.5c-0.6-0.2-1.3,0.1-1.5,0.7l-2.6,7.8c-0.3,0.2-0.5,0.5-0.7,0.8l-5.5,16.4
	l-5.7,3.8c-1.1-0.9-2.3-1.8-3.5-2.5c-0.8-4.8-3.8-9-8.1-11.2l2.9-13.8c0.1-0.8-0.5-1.6-1.3-1.7c-0.7-0.1-1.4,0.4-1.7,1.1l-2.8,13.2
	c-2.8-0.8-5.9-0.8-8.7,0.1L43,7.6c-0.3-0.8-1.1-1.2-1.9-1C40.4,6.8,40,7.4,40,8.2l2.7,13.9c-4.2,2.3-7.1,6.4-7.9,11.1
	c-1.2,0.8-2.4,1.6-3.5,2.5l-5.7-3.8l-5.5-16.4c-0.1-0.3-0.3-0.6-0.6-0.8l-2.6-7.8c-0.2-0.6-0.9-1-1.5-0.7s-1,0.9-0.7,1.5l2.6,7.8
	c-0.1,0.3-0.1,0.7,0,1L23,33.9l6,4c-3.9,4-6.6,9.1-7.7,14.6l-6.5,4.9c-0.7,0.5-0.8,1.5-0.2,2.2c0.5,0.6,1.4,0.8,2.1,0.3l4.1-3.1
	c0,0.5,0,1,0,1.5c0,4.1,0.8,8.1,2.4,11.8l-5.5,13.7c-0.1,0.3-0.1,0.7,0,1l-3.1,7.7c-0.2,0.6,0.1,1.3,0.7,1.5
	c0.1,0.1,0.3,0.1,0.4,0.1c0.5,0,0.9-0.3,1.1-0.7l3.1-7.7c0.3-0.2,0.6-0.4,0.7-0.8l4.5-11.3c2.6,4.3,6.3,7.9,10.8,10.3
	c0.8,0.4,1.7,0.1,2.1-0.7c0,0,0,0,0,0l2.3-4.6c5.6,2.2,11.7,2.6,17.5,1.2l2.2,4.4c0.4,0.7,1.3,1,2,0.7c5.3-2.4,9.8-6.3,12.8-11.3
	l4.6,11.3c0.1,0.3,0.4,0.6,0.7,0.8l3.1,7.7c0.2,0.4,0.6,0.7,1.1,0.7c0.2,0,0.3,0,0.4-0.1c0.6-0.2,0.9-0.9,0.7-1.5l-3.1-7.7
	c0.1-0.3,0.1-0.7,0-1l-5.5-13.6c0,0,0-0.1-0.1-0.1c1.6-3.7,2.5-7.7,2.5-11.8c0-0.5,0-1,0-1.5l4.1,3.1C83.6,60,83.9,60.1,84.3,60.1z
	 M50,23.3c5.1,0,9.7,3.2,11.5,8c-7.4-3.2-15.7-3.2-23.1,0C40.3,26.5,44.9,23.3,50,23.3z M51,77.4c-3.1,0-6.3-0.6-9.2-1.7l7.1-14.1
	l7.6,15.2C54.6,77.2,52.8,77.4,51,77.4z M62.1,81.4L50.2,57.5c-0.4-0.8-1.3-1.1-2.1-0.7c-0.3,0.1-0.5,0.4-0.7,0.7L36,80.3
	c-12.2-7.7-15.9-23.9-8.2-36.1S51.7,28.3,63.9,36s15.9,23.9,8.2,36.1C69.7,76,66.2,79.2,62.1,81.4L62.1,81.4z"/>
<path d="M50,43.3c-6,0-10.8,4.8-10.8,10.8c0,0.9,0.7,1.5,1.5,1.5s1.5-0.7,1.5-1.5c0-4.3,3.4-7.7,7.7-7.7s7.7,3.4,7.7,7.7
	c0,0.9,0.7,1.5,1.5,1.5s1.5-0.7,1.5-1.5C60.8,48.1,56,43.3,50,43.3z"/>
</svg>
