<?xml version="1.0" encoding="utf-8"?>
<!-- Generator: Adobe Illustrator 22.1.0, SVG Export Plug-In . SVG Version: 6.00 Build 0)  -->
<svg version="1.1" id="Layer_1" xmlns="http://www.w3.org/2000/svg" xmlns:xlink="http://www.w3.org/1999/xlink" x="0px" y="0px"
	 viewBox="0 0 100 125" style="enable-background:new 0 0 100 125;" xml:space="preserve">
<g>
	<path d="M87.3,81c-0.8-0.4-2.2-1.3-3.7-2.5c-2.6-1.9-5.8-4.3-9.1-5.5c-2.9-1.1-5.7-1.2-8.4-1.3c-0.7,0-1.5-0.1-2.2-0.1
		c-3.3-0.2-6.6-1-9.8-1.7c-4.2-1-8.6-2-13.4-1.7c-7.2,0.4-16.5,1.5-24.2,6.7C10.3,79.2,9,86.6,8.4,89.8l-0.1,0.6
		C8,92,6.1,91.9,5.8,91.8c-0.6-0.1-1.1,0.3-1.2,0.9c-0.1,0.6,0.3,1.1,0.9,1.2c0.2,0,0.4,0,0.6,0c1.5,0,3.7-0.6,4.2-3.2l0.1-0.6
		c0.6-3.2,1.7-9.7,7.3-13.4c7.3-4.9,16.2-6,23.1-6.3c4.4-0.2,8.5,0.7,12.8,1.7c3.2,0.7,6.6,1.5,10.1,1.7c0.8,0,1.5,0.1,2.3,0.1
		c2.7,0.1,5.2,0.2,7.8,1.2c3,1.1,6.1,3.4,8.6,5.2c1.7,1.2,3,2.2,4.1,2.7c0.2,0.1,0.4,0.2,0.6,0.3c0,0,0,0,0,0l0.1,1.4
		c0.1,0.5,0.5,0.9,1,0.9c0,0,0.1,0,0.1,0c0.6-0.1,1-0.6,0.9-1.1l0-0.1c0.7,0.4,1.2,0.8,1.4,1c-0.2,0.2-0.8,0.5-2.7,0.8
		c-0.2,0-0.4,0.1-0.4,0.1c-0.7,0.2-1.4,0.3-2,0.4c-1.9,0.3-3.9,0.6-5.8,1.9c-1.3,0.8-3.4,1.9-5.7,1.8c0,0-0.1,0-0.1,0
		c-3.3-2.8-9.1-3.9-10-4.1c-0.6-0.1-1.1,0.3-1.2,0.9s0.3,1.1,0.9,1.2c2.6,0.4,10.2,2.5,10.4,6c0,0.6,0.5,1,1,1c0,0,0,0,0.1,0
		c0.6,0,1-0.5,1-1.1c0-0.7-0.2-1.3-0.5-1.8c1.8-0.2,3.6-0.9,5.4-2c1.5-1,3.1-1.2,5-1.5c0.7-0.1,1.4-0.2,2.1-0.4c0.1,0,0.2,0,0.3-0.1
		c1.9-0.3,3.7-0.7,4.3-2c0.3-0.6,0.3-1.2,0-1.8C91.9,83.1,88.1,81.3,87.3,81z"/>
	<path d="M34.5,100.2c-0.6-0.1-1.2-0.2-1.8-0.4c-0.6-0.2-1.2-0.3-1.8-0.4c-0.3-0.1-0.6-0.1-1-0.1c-0.7-0.1-1.3-0.1-1.8-0.4
		c-0.8-0.4-1.5-1.1-2.3-1.9c-0.2-0.2-0.3-0.6-0.3-0.7c-0.2-1,0-2,0.1-3l0.1-0.6c0.1-0.6-0.3-1.1-0.9-1.2c-0.6-0.1-1.1,0.3-1.2,0.9
		l-0.1,0.6c-0.1,1-0.3,2.1-0.1,3.2c-4.9,0.7-11.9-2.9-12-3c-0.5-0.3-1.1-0.1-1.4,0.4c-0.3,0.5-0.1,1.1,0.4,1.4
		c0.3,0.2,6.4,3.3,11.7,3.3c0.7,0,1.3-0.1,1.9-0.2c0.1,0.1,0.2,0.3,0.3,0.4c0.8,0.7,1.6,1.6,2.7,2.2c0.9,0.5,1.8,0.6,2.6,0.7
		c0.3,0,0.6,0.1,0.8,0.1c0.5,0.1,1,0.2,1.6,0.4c0.7,0.2,1.3,0.4,2.1,0.5c0,0,0.1,0,0.1,0c0.5,0,1-0.4,1-0.9
		C35.5,100.8,35.1,100.3,34.5,100.2z"/>
	<path d="M33.7,94.2c-0.2,0-0.5,0-0.7-0.1c0.2-1,0.8-3.1,1.4-4.8c0.2-0.5-0.1-1.1-0.6-1.3c-0.5-0.2-1.1,0.1-1.3,0.6
		c-2.3,6.6-1.5,7-0.8,7.3c0.4,0.2,0.9,0.2,1.9,0.3c1.4,0.1,3.6,0.3,4.6,1c0.2,0.1,0.4,0.2,0.6,0.2c0.3,0,0.7-0.2,0.9-0.5
		c0.3-0.5,0.2-1.1-0.3-1.5C37.9,94.6,35.5,94.4,33.7,94.2z"/>
	<path d="M62.3,93.7c-1.1,0.2-2.1,0.3-3,0.3c-2.1-0.1-3.4-4.2-3.7-5.7c-0.1-0.6-0.7-0.9-1.2-0.8c-0.6,0.1-0.9,0.7-0.8,1.2
		c0.1,0.4,0.5,2.2,1.3,3.9c-1.5,0.2-3.5,0.2-5.1,0.2c-1.3,0-2.3,0-2.9,0.1c-0.9,0.1-4.5,0-6.6-0.1c-0.6,0-1.1,0.4-1.1,1
		c0,0.6,0.4,1.1,1,1.1c0.4,0,2.9,0.1,4.9,0.1c0.9,0,1.7,0,2.1-0.1c0.4-0.1,1.5-0.1,2.6-0.1c2.1,0,4.6,0,6.4-0.4
		c0.8,0.9,1.8,1.5,3,1.5c1.1,0,2.3-0.2,3.4-0.3c2.9-0.5,4.8-0.7,5.9,1.3c0.2,0.4,0.6,0.6,0.9,0.6c0.2,0,0.3,0,0.5-0.1
		c0.5-0.3,0.7-0.9,0.4-1.4C68.6,92.7,65.1,93.3,62.3,93.7z"/>
	<circle cx="78.1" cy="81.5" r="1"/>
	<path d="M70.4,91.9c-0.5-0.3-1.1,0-1.4,0.5c-0.3,0.5,0,1.1,0.5,1.4c0.5,0.2,1.5,1,1.6,1.6c0,0.6,0.5,1,1,1c0,0,0.1,0,0.1,0
		c0.6,0,1-0.5,1-1.1C73,93.2,70.7,92,70.4,91.9z"/>
	<path d="M37,97.8c-1.1-0.6-3.6-0.9-4.1-0.9c-0.6,0-1.1,0.4-1.1,1c0,0.6,0.4,1.1,1,1.1c1,0.1,2.7,0.3,3.2,0.7
		c0.2,0.1,0.3,0.1,0.5,0.1c0.4,0,0.7-0.2,0.9-0.5C37.7,98.8,37.5,98.1,37,97.8z"/>
</g>
<g>
	<path d="M73,57.7l0-0.4c-0.1-0.7-0.1-1.4-0.2-2.2c-0.3-3.4-0.6-7.6-1.6-10.4L70.9,44c-1.3-3.3-3.4-9-8.6-11.3
		c-5.3-2.4-11.7-2.4-14.6-1.7c-1.5,0.4-3.3,0.5-4.8,0.6c-1,0.1-2,0.1-2.6,0.2c-1.2,0.2-3.4,0.6-4.3,0.8c-0.2-0.3-0.6-0.9-0.3-1.4
		c0.2-0.4,0.5-0.7,1-1.2c0.8-0.8,1.8-1.8,2.6-3.8c0.3-0.7,0.8-1.6,1.2-2.5c1.3-2.6,2.7-5.3,2.2-6.9c-0.2-0.5-0.5-0.9-1-1.1
		c-2.6-1.2-7.7,2-8.9,3.3c-1.2,1.4-3.4,5.9-4,7.1c-0.5,1.1-0.8,1.7-1,1.7c-0.9,0-5.8,1.5-7.4,2.7c-1.4,1.1-5.7,5.9-6.2,7L14,37.7
		c-0.5,0.9-1,2-0.3,3.3c0.1,0.2,0.2,0.4,0.3,0.6c0.5,1,1.2,2.8,3.5,2.9c1.5,0.1,2.1-0.1,2.5-0.2c2.1,1,4,1.5,5.7,1.4
		c0.9,1,3.9,4.5,4.8,5.4c0.3,0.3,0.5,0.5,0.8,0.7c0.7,0.6,0.6,0.6,0.6,0.8c-0.2,0.8-2.3,5.5-2.8,6.7c-0.2,0-0.4,0-0.5,0
		c-1.5,0.1-2.6,0.2-3.1,0.8c-0.5,0.7-0.8,2.5-0.3,3.5c0.3,0.6,0.7,0.9,1.3,0.9c0.2,0,0.6,0.1,1,0.1c1.3,0.2,2.4,0.3,3.2,0.3
		c1.1,0,1.8-0.2,2.2-0.7c0.7-0.9,3.2-4.8,4.4-6.7c0.4,0.4,1,0.9,1.6,1.3c-0.3,0.2-0.5,0.5-0.6,0.8c0,0-0.9,2.1-0.2,3.6
		c0.2,0.6,0.7,1,1.2,1.2c1.6,0.6,12.5,2.2,14.5,2.2c0,0,0.1,0,0.1,0c1.1,0,2.1-0.6,2.7-1.5c0.2-0.2,0.3-0.5,0.4-0.7
		c1.1,0.2,3.4,0.5,5.3,0.7c0.5,0.1,1,0.1,1.6,0.1c2.6,0,5.8-0.5,7.5-1.2C73.6,63.1,73.2,59.5,73,57.7z M70.8,62.7
		c-1.7,0.7-5.7,1.3-8.4,1c-2-0.2-4.4-0.5-5.5-0.7c-0.4-1.2-2.3-5-2.5-5.5c-0.2-0.4-0.6-0.5-1-0.3c-0.4,0.2-0.5,0.6-0.3,1
		c0.6,1.2,2.2,4.6,2.5,5.4c0.1,0.2,0,0.5-0.2,0.8c-0.4,0.5-0.9,0.8-1.5,0.8c-1.6,0-12.6-1.7-14.1-2.2c-0.2-0.1-0.3-0.2-0.4-0.3
		c-0.3-0.7,0-1.9,0.3-2.4c0.1-0.2,0.7-0.5,1.5-0.3c1,0.2,5.9,1,5.9,1c0.4,0.1,0.7-0.1,0.8-0.5c0.1-0.3,0-0.7-0.3-0.9
		c-5.3-3.5-4.8-9.2-3.8-13.7c1-4.5,6.7-4.3,6.7-4.3c0.4,0,0.8-0.3,0.8-0.7c0-0.4-0.3-0.8-0.7-0.8C48,40,43.2,41,42.2,45.6
		c-0.9,4.3-1.4,9.5,2.3,13.5c-1.2-0.2-2.5-0.4-3.1-0.5c-1.7-0.5-2.9-1.7-3.5-2.3c0.4-0.9,0.8-2.3,0.8-5.6c0-0.4-0.3-0.8-0.8-0.7
		c-0.4,0-0.7,0.3-0.7,0.8c0,3.3-0.4,4.5-0.8,5.3l-0.1,0.2c-0.3,0.7-3.8,6.1-4.7,7.4c-0.5,0.3-3.1-0.1-4-0.2c-0.4-0.1-0.8-0.1-1-0.1
		c-0.2-0.2-0.2-1.6,0.1-2c0.3-0.2,1.5-0.2,2-0.2c0.9,0,1.2-0.1,1.5-0.3c0.4-0.4,3.1-7.1,3.2-7.5c0.3-1.2-0.4-1.8-1-2.4
		c-0.2-0.2-0.4-0.4-0.7-0.6c-0.7-0.7-2.9-3.3-4.2-4.7c0.4-0.1,0.9-0.3,1.3-0.5c0.4-0.2,0.5-0.7,0.3-1s-0.7-0.5-1-0.3
		c-1.7,1-4.3,0.8-7.4-0.7c-0.1,0-0.1-0.1-0.2-0.1c-0.4-0.2-0.7,0-0.9,0c-0.2,0.1-0.6,0.2-1.9,0.2c-1.3-0.1-1.7-0.9-2.2-2
		c-0.1-0.3-0.2-0.6-0.4-0.8c-0.3-0.6-0.1-1,0.3-1.9l0.1-0.1c0.4-0.8,4.5-5.4,5.8-6.5c1.3-1,5.8-2.4,6.4-2.4c1.3,0,1.9-1.2,2.4-2.6
		c0.7-1.5,2.7-5.6,3.7-6.7c1.1-1.2,5.5-3.7,7.2-3c0.1,0,0.1,0.1,0.2,0.2c0.3,1-1.1,3.8-2.1,5.7c-0.5,1-1,1.8-1.3,2.6
		c-0.7,1.7-1.6,2.5-2.3,3.3c-0.5,0.5-1,1-1.3,1.6c-0.7,1.4,0.2,2.8,0.9,3.4c0.2,0.2,0.4,0.2,0.6,0.2c0,0,3.1-0.6,4.7-0.8
		c0.6-0.1,1.4-0.2,2.4-0.2c1.7-0.1,3.5-0.2,5.1-0.6c2.6-0.6,8.7-0.5,13.6,1.6c4.7,2.1,6.6,7.1,7.8,10.4l0.3,0.7
		c1,2.5,1.3,6.7,1.6,10c0.1,0.8,0.1,1.6,0.2,2.3l0,0.4C71.6,59.1,72,62.2,70.8,62.7z"/>
</g>
</svg>
