<svg xmlns="http://www.w3.org/2000/svg" xmlns:xlink="http://www.w3.org/1999/xlink" version="1.1" x="0px" y="0px" viewBox="0 0 100 125" enable-background="new 0 0 100 100" xml:space="preserve"><g><path d="M13.921,80.358c2.254,0.958,6.544,1.614,10.012,1.614c0.775,0,1.51-0.033,2.171-0.103c2.563-0.27,5.591-0.675,7.089-0.881   c0.118,0.333,0.269,0.666,0.493,0.986c0.831,1.188,2.176,1.922,3.597,1.963c0.035,0.001,0.072,0.001,0.111,0.001   c2.699,0,17.232-2.239,19.375-2.996c0.762-0.269,1.337-0.804,1.663-1.547c0.863-1.968-0.315-4.762-0.327-4.79   c-0.177-0.415-0.478-0.752-0.853-1.022c0.901-0.587,1.64-1.217,2.176-1.731c1.522,2.577,4.886,7.678,5.834,8.937   c0.497,0.66,1.413,0.921,2.894,0.921c1.095,0,2.498-0.143,4.268-0.374c0.527-0.069,0.974-0.128,1.279-0.152   c0.754-0.06,1.357-0.509,1.699-1.263c0.613-1.354,0.29-3.725-0.395-4.644c-0.625-0.838-2.109-0.971-4.138-1.066   c-0.225-0.011-0.501-0.024-0.714-0.039c-0.758-1.589-3.445-7.905-3.761-8.959c-0.077-0.256-0.093-0.309,0.781-1.064   c0.309-0.267,0.659-0.57,1.031-0.942c1.208-1.208,5.283-5.904,6.449-7.251c2.268,0.082,4.869-0.557,7.649-1.931   c0.455,0.171,1.291,0.412,3.318,0.286c3.062-0.188,4.069-2.522,4.67-3.917c0.132-0.307,0.252-0.592,0.386-0.824   c0.99-1.724,0.282-3.136-0.343-4.382l-0.067-0.134c-0.72-1.439-6.362-7.807-8.27-9.333c-2.052-1.642-8.551-3.594-9.812-3.594   c-0.368,0-0.774-0.777-1.395-2.21c-0.723-1.668-3.689-7.702-5.293-9.515c-1.6-1.808-8.457-6.012-11.915-4.435   c-0.624,0.285-1.072,0.778-1.296,1.426c-0.732,2.118,1.117,5.696,2.905,9.156c0.637,1.231,1.238,2.394,1.638,3.342   c1.108,2.621,2.477,4.006,3.477,5.017c0.583,0.589,1.043,1.055,1.285,1.577c0.327,0.703-0.089,1.447-0.408,1.871   c-1.209-0.216-4.108-0.735-5.761-1.026c-0.883-0.156-2.088-0.227-3.483-0.309c-2.117-0.125-4.517-0.266-6.453-0.74   c-3.788-0.929-12.309-0.828-19.393,2.307c-6.973,3.085-9.802,10.553-11.492,15.014l-0.349,0.916   c-1.413,3.664-1.846,9.311-2.194,13.847c-0.082,1.07-0.159,2.079-0.244,2.982l-0.059,0.56   C11.503,74.242,10.972,79.104,13.921,80.358z M13.746,72.122l0.062-0.592c0.085-0.913,0.164-1.933,0.247-3.015   c0.338-4.406,0.758-9.89,2.066-13.28l0.353-0.927c1.682-4.438,4.223-11.146,10.431-13.894c6.581-2.912,14.695-3.03,18.107-2.193   c2.113,0.518,4.609,0.665,6.812,0.794c1.333,0.078,2.483,0.146,3.252,0.282c2.124,0.375,6.31,1.125,6.31,1.125   c0.308,0.054,0.626-0.038,0.857-0.251c0.848-0.788,2.047-2.627,1.164-4.529c-0.39-0.839-1.015-1.472-1.677-2.142   c-0.984-0.995-2.099-2.122-3.056-4.389c-0.431-1.019-1.049-2.215-1.704-3.482c-1.292-2.499-3.244-6.276-2.792-7.584   c0.046-0.132,0.11-0.202,0.237-0.26c2.231-1.021,8.158,2.328,9.585,3.94c1.296,1.465,4.079,6.96,4.957,8.985   c0.761,1.756,1.479,3.415,3.228,3.415c0.84,0.021,6.854,1.787,8.565,3.156c1.782,1.426,7.185,7.577,7.73,8.667l0.069,0.137   c0.59,1.177,0.833,1.729,0.396,2.488c-0.167,0.291-0.323,0.646-0.488,1.03c-0.677,1.571-1.249,2.608-2.956,2.713   c-1.809,0.11-2.342-0.101-2.597-0.203c-0.226-0.09-0.646-0.257-1.173-0.031c-0.041,0.018-0.123,0.057-0.239,0.115   c-4.005,1.997-7.482,2.331-9.79,0.946c-0.474-0.285-1.088-0.131-1.372,0.343s-0.131,1.088,0.343,1.372   c0.516,0.309,1.083,0.531,1.671,0.712c-1.631,1.877-4.597,5.269-5.551,6.224c-0.333,0.333-0.647,0.604-0.924,0.842   c-0.869,0.751-1.854,1.602-1.39,3.152c0.167,0.555,3.73,9.399,4.313,9.982c0.362,0.362,0.804,0.383,1.983,0.439   c0.675,0.032,2.221,0.105,2.665,0.322c0.306,0.558,0.424,2.366,0.104,2.66c-0.329,0.026-0.812,0.088-1.379,0.163   c-1.164,0.151-4.704,0.61-5.305,0.232c-1.273-1.69-5.895-8.833-6.292-9.803l-0.091-0.218c-0.464-1.112-1.1-2.635-1.043-7.051   c0.007-0.552-0.435-1.005-0.987-1.013c-0.575-0.034-1.006,0.435-1.013,0.987c-0.057,4.367,0.557,6.267,1.046,7.479   c-0.717,0.761-2.399,2.336-4.612,3.062c-0.704,0.127-2.433,0.423-4.081,0.704c4.912-5.236,4.267-12.207,3.022-17.945   c-1.327-6.121-7.778-7.488-11.018-7.354c-0.552,0.022-0.981,0.488-0.958,1.04c0.022,0.552,0.479,0.98,1.04,0.958   c0.077-0.001,7.675-0.245,8.982,5.78c1.314,6.063,1.926,13.621-5.078,18.29c-0.393,0.262-0.549,0.762-0.375,1.201   c0.174,0.438,0.627,0.696,1.096,0.617c0,0,6.427-1.085,7.804-1.335c1.07-0.195,1.84,0.119,1.965,0.41   c0.269,0.627,0.726,2.304,0.333,3.199c-0.105,0.239-0.254,0.378-0.498,0.464c-1.925,0.679-16.666,2.909-18.764,2.881   c-0.791-0.022-1.544-0.438-2.015-1.11c-0.315-0.45-0.385-0.864-0.315-1.074c0.341-1.025,2.516-5.537,3.324-7.189   c0.243-0.496,0.038-1.095-0.458-1.338c-0.496-0.243-1.095-0.037-1.338,0.458c-0.294,0.601-2.809,5.751-3.372,7.288   c-1.375,0.19-4.586,0.625-7.272,0.908c-3.604,0.377-8.976-0.421-11.192-1.363C13.121,77.845,13.575,73.687,13.746,72.122z"/></g><text x="0" y="115" fill="#000000" font-size="5px" font-weight="bold" font-family="'Helvetica Neue', Helvetica, Arial-Unicode, Arial, Sans-serif">Created by Anniken &amp; Andreas</text><text x="0" y="120" fill="#000000" font-size="5px" font-weight="bold" font-family="'Helvetica Neue', Helvetica, Arial-Unicode, Arial, Sans-serif">from the Noun Project</text></svg>