<?xml version="1.0" encoding="utf-8"?>
<!-- Generator: Adobe Illustrator 22.1.0, SVG Export Plug-In . SVG Version: 6.00 Build 0)  -->
<svg version="1.1" id="Layer_1" xmlns="http://www.w3.org/2000/svg" xmlns:xlink="http://www.w3.org/1999/xlink" x="0px" y="0px"
	 viewBox="0 0 100 125" style="enable-background:new 0 0 100 125;" xml:space="preserve">
<path d="M54.8,65.6c1.4,0,2.5,1.1,2.5,2.5s-1.1,2.5-2.5,2.5v1c1.9,0,3.5-1.6,3.5-3.5s-1.6-3.5-3.5-3.5s-3.5,1.6-3.5,3.5h1
	C52.3,66.8,53.5,65.6,54.8,65.6z"/>
<path d="M30.7,64.6c-1.9,0-3.5,1.6-3.5,3.5s1.6,3.5,3.5,3.5v-1c-1.4,0-2.5-1.1-2.5-2.5s1.1-2.5,2.5-2.5s2.5,1.1,2.5,2.5h1
	C34.2,66.2,32.7,64.6,30.7,64.6z"/>
<ellipse transform="matrix(0.5071 -0.8619 0.8619 0.5071 -42.0407 79.8514)" cx="48.8" cy="76.7" rx="2.5" ry="1.7"/>
<ellipse transform="matrix(0.8619 -0.5071 0.5071 0.8619 -33.833 28.982)" cx="36.3" cy="76.6" rx="1.7" ry="2.5"/>
<path d="M72.1,36.8c1.5-1.9,3.7-3.7,5-6.4c1.3-2.6,1.7-5.8,1.2-8.8c-0.2-1.5-0.7-3-1.4-4.4c-0.4-0.7-0.8-1.4-1.3-2s-1.1-1.2-1.7-1.7
	c-2.4-2-5.2-3.3-8.3-4C64,9.2,62.5,9.2,61,9.2c-1.5,0.1-3,0.3-4.4,0.7c-1.4,0.4-2.7,0.8-4,1.3s-2.6,1.2-3.7,2.1
	c-2.1,1.7-3.7,3.9-4.7,5.9c-1.1,2.1-1.7,4.1-2.2,5.9c-0.4,1.8-0.6,3.5-0.7,4.8c-0.1,1.4,0,2.4,0.1,3.2c-11.1,0.7-19.9,9.4-19.8,20
	c0,0.3,0.6,6.8,3.3,11.9H25c-0.5,0.9-0.8,2-0.8,3.1c0,2.4,1.3,4.4,3.2,5.6c0.7,1.9,4.1,10.4,12.9,15.3c0.3,1,1.4,1.8,2.6,1.8
	c1.1,0,2-0.6,2.5-1.4c8.9-4.8,12-13.5,12.6-15.5c2-1.1,3.4-3.3,3.4-5.8c0-1.1-0.3-2.1-0.8-3.1l0,0c2.7-5.1,3.3-11.7,3.3-12
	c0-10.5-8.8-19.2-19.9-19.9c0-0.1,0-0.2,0-0.3c-0.1-0.6-0.1-1.6-0.1-2.8s0.2-2.7,0.6-4.4c0.4-1.6,0.9-3.5,1.9-5.4
	c0.9-1.9,2.2-3.7,4-5.2c0.9-0.7,1.9-1.3,3.1-1.8s2.4-1,3.7-1.3s2.6-0.6,3.9-0.7c1.3-0.1,2.8-0.1,4,0.1c2.6,0.5,5.3,1.8,7.5,3.4
	c1.1,0.9,2,1.8,2.6,3c0.7,1.2,1.1,2.5,1.3,3.8c0.5,2.7,0.1,5.5-1,7.8c-1,2.4-3,4.1-4.6,6.2c-1.7,2.1-2.6,4.6-2.8,6.9
	s0.2,4.4,0.7,6.2c0.5,1.8,1.2,3.2,1.7,4.4c1,2.4,1.3,3.8,1.3,3.8c0,0.2,0.3,0.4,0.5,0.3c0.2,0,0.4-0.3,0.3-0.5l0,0
	c0,0-0.1-0.4-0.2-1.1c-0.2-0.7-0.5-1.7-1-2.9c-0.5-1.2-1.1-2.7-1.5-4.3c-0.4-1.7-0.7-3.7-0.5-5.8C69.6,40.8,70.5,38.6,72.1,36.8z
	 M62,53c0,0.1-0.5,5.7-2.7,10.3c-1.2-1.1-2.7-1.8-4.5-1.8c-3.6,0-6.6,2.9-6.6,6.6h2c0-2.5,2-4.6,4.6-4.6s4.6,2,4.6,4.6
	s-2,4.6-4.6,4.6v2c0.2,0,0.5,0,0.7,0c-1.1,2.9-4.1,8.8-10.3,12.6c-0.5-0.7-1.3-1.2-2.3-1.2c-0.9,0-1.7,0.4-2.2,1
	c-6.2-3.7-9.5-9.4-10.8-12.4c0.3,0,0.6,0.1,0.9,0.1v-2c-2.5,0-4.6-2-4.6-4.6s2-4.6,4.6-4.6s4.6,2,4.6,4.6h2c0-3.6-2.9-6.6-6.6-6.6
	c-1.7,0-3.3,0.7-4.5,1.8c-2.2-4.6-2.7-10.3-2.7-10.3c0-9.8,8.6-17.9,19.1-18h0.1h0.1C53.4,35.2,62,43.3,62,53z"/>
</svg>
